<svg width="12" height="12" viewBox="0 0 12 12" fill="none" xmlns="http://www.w3.org/2000/svg">
<path d="M11.5605 4.52381L7.768 0.730812C7.29862 0.262807 6.66283 0 6 0C5.33717 0 4.70138 0.262807 4.232 0.730812L0.439506 4.52381C0.299718 4.6627 0.188891 4.82796 0.113447 5.01C0.0380036 5.19204 -0.0005552 5.38725 6.03974e-06 5.58431V10.4928C6.03974e-06 10.8906 0.158041 11.2722 0.439345 11.5535C0.72065 11.8348 1.10218 11.9928 1.5 11.9928H10.5C10.8978 11.9928 11.2794 11.8348 11.5607 11.5535C11.842 11.2722 12 10.8906 12 10.4928V5.58431C12.0006 5.38725 11.962 5.19204 11.8866 5.01C11.8111 4.82796 11.7003 4.6627 11.5605 4.52381ZM7.5 10.9928H4.5V9.0258C4.5 8.62798 4.65804 8.24645 4.93934 7.96514C5.22064 7.68384 5.60218 7.52581 6 7.52581C6.39782 7.52581 6.77936 7.68384 7.06066 7.96514C7.34196 8.24645 7.5 8.62798 7.5 9.0258V10.9928ZM11 10.4928C11 10.6254 10.9473 10.7526 10.8535 10.8464C10.7598 10.9401 10.6326 10.9928 10.5 10.9928H8.5V9.0258C8.5 8.36276 8.23661 7.72688 7.76777 7.25804C7.29892 6.7892 6.66304 6.52581 6 6.52581C5.33696 6.52581 4.70108 6.7892 4.23223 7.25804C3.76339 7.72688 3.5 8.36276 3.5 9.0258V10.9928H1.5C1.3674 10.9928 1.24022 10.9401 1.14645 10.8464C1.05268 10.7526 1.00001 10.6254 1.00001 10.4928V5.58431C1.00047 5.4518 1.0531 5.3248 1.1465 5.23081L4.939 1.43931C5.22085 1.15878 5.60233 1.00128 6 1.00128C6.39767 1.00128 6.77915 1.15878 7.061 1.43931L10.8535 5.23231C10.9465 5.32593 10.9991 5.45232 11 5.58431V10.4928Z" fill="white"/>
</svg>
